<svg width="24" height="24" viewBox="0 0 24 24" fill="none" xmlns="http://www.w3.org/2000/svg">
<path d="M5.22779 2.33706C5.26734 2.32713 5.30266 2.31924 5.3334 2.3133C6.9696 2.00026 8.76622 2.17316 10.414 3.25241C12.0617 4.33167 12.6803 6.1863 12.7034 7.08874C12.7042 7.12096 12.7049 7.15383 12.7057 7.18728C12.7198 7.82134 12.7386 8.66217 13.5516 9.21582C13.6531 9.28503 13.7516 9.3519 13.8456 9.41571C14.239 9.68273 14.5531 9.89596 14.6732 10.0017L14.6807 10.0082C14.8307 10.1401 15.0827 10.3616 14.7861 10.6566C14.683 10.7592 14.594 10.8418 14.5167 10.9135C14.3682 11.0515 14.2632 11.1489 14.1856 11.2695C14.104 11.3751 14.0596 11.5057 14.0596 11.6402C14.0596 11.7747 14.104 11.9053 14.1856 12.0109C14.2969 12.1726 14.3621 12.2487 14.4134 12.3085C14.4598 12.3626 14.4948 12.4035 14.5423 12.4824C14.6634 12.669 14.4418 13.0164 14.1825 13.0442C14.278 13.0462 14.4903 13.0772 14.5474 13.3076C14.5991 13.5156 14.4895 13.6361 14.3777 13.759C14.3284 13.8133 14.2786 13.868 14.242 13.931C14.1227 14.1366 14.0842 14.3135 14.2638 14.6972C14.2694 14.7091 14.2749 14.7208 14.2803 14.7323C14.45 15.0937 14.5458 15.2979 14.2934 15.7739C14.0329 16.265 13.5632 16.5741 12.2196 16.4733C10.876 16.3724 10.4897 16.5558 9.51694 17.3679C9.30964 17.5591 9.14845 17.7967 9.04597 18.062C9.04597 18.062 8.32733 19.4242 9.81852 21.8813C10.1535 22.4314 9.57469 23.1047 9.02673 22.7982C-1.0197 17.2431 -0.0557112 9.52169 0.0919363 8.33907C0.0939802 8.32269 0.0958677 8.30758 0.0975673 8.29373C0.601519 4.20231 4.07416 2.65646 5.1556 2.35618C5.38921 2.2352 5.9032 1.98976 6.02638 1.94133C13.1756 -0.891714 20.8869 1.74617 22.9659 5.47772C24.8587 8.88314 23.7358 12.7928 22.8824 14.2021C22.029 15.6115 19.7332 17.8486 16.5481 18.4471C13.363 19.0457 10.4127 18.4314 10.4127 18.4314C10.4127 18.4314 10.2369 18.4445 10.541 18.155C11.5317 17.2094 12.004 17.081 13.4515 17.191C14.8991 17.3011 15.4047 16.9684 15.6857 16.4392C15.9579 15.9268 15.8546 15.7067 15.6718 15.3174C15.6658 15.3047 15.6598 15.2918 15.6537 15.2788C15.4599 14.8649 15.5035 14.675 15.6305 14.4536C15.6636 14.396 15.7009 14.3454 15.7374 14.296C15.841 14.1555 15.9375 14.0247 15.909 13.7699C15.9041 13.6919 15.8718 13.6183 15.8181 13.5625C15.7643 13.5067 15.6928 13.4725 15.6164 13.466C15.9103 13.4791 16.0682 13.1059 15.9539 12.8989C15.8962 12.7943 15.8569 12.7503 15.8025 12.6895C15.7494 12.6301 15.6819 12.5546 15.569 12.3907C15.4809 12.277 15.433 12.1362 15.433 11.9912C15.433 11.8463 15.4809 11.7055 15.569 11.5918C15.6551 11.4598 15.7703 11.3527 15.9338 11.2005C16.0137 11.1261 16.1052 11.0409 16.2106 10.9369C16.5314 10.6199 16.2491 10.371 16.0823 10.2322C15.9154 10.0934 15.4406 9.76724 14.8734 9.38085C13.9926 8.78114 13.9749 7.86788 13.9616 7.18331C13.961 7.15172 13.9604 7.12062 13.9597 7.09006C13.9353 6.1182 13.2911 4.08543 11.4945 2.95772C10.8297 2.54038 7.99989 1.11702 5.22779 2.33706Z" fill="white"/>
</svg>
